<svg width="331" height="117" viewBox="0 0 331 117" fill="none" xmlns="http://www.w3.org/2000/svg">
<g clip-path="url(#clip0_10_62)">
<g filter="url(#filter0_f_10_62)">
<path d="M92.4967 72.9352C83.0728 67.6057 73.7272 62.1385 64.365 56.7003L60.6576 54.5428C60.5847 54.4979 60.5228 54.4372 60.4764 54.3652C60.43 54.2931 60.4003 54.2115 60.3895 54.1264C60.3573 53.6619 60.8442 53.5512 61.1788 53.3578C69.1663 48.7458 77.1543 44.1332 85.1431 39.5202C85.5423 39.2901 85.9293 38.7585 86.4196 39.0653C86.8221 39.3172 86.6141 39.8836 86.6149 40.308C86.6254 46.7562 86.6431 53.2047 86.6003 59.6529C86.5541 60.0858 86.6445 60.5222 86.8588 60.9007C87.0731 61.2791 87.4004 61.5803 87.7945 61.7618C89.5705 62.7202 91.3006 63.7659 93.0569 64.7623C94.3855 65.5152 94.6355 65.3802 94.6355 63.8324C94.6442 54.2923 94.6488 44.7524 94.6494 35.2125C94.6884 34.8183 94.6084 34.4215 94.4199 34.0735C94.2314 33.7255 93.943 33.4426 93.5922 33.2613C91.5258 32.1008 89.4848 30.8946 87.4446 29.6885C87.2001 29.5401 86.9173 29.4679 86.6319 29.4811C86.3465 29.4943 86.0715 29.5923 85.8417 29.7626C81.1757 32.4825 76.5061 35.1957 71.833 37.9022L51.915 49.4564L43.9996 44.8492C43.7826 44.6803 43.5442 44.5414 43.2905 44.4362L39.7365 42.3692C37.98 41.3457 36.2228 40.3227 34.4648 39.3002L33.4155 38.6902V38.6945C31.0503 37.3218 28.6814 35.9546 26.3089 34.5929C25.278 34.0038 25.473 33.772 26.334 33.2752C34.6565 28.4599 42.9698 23.6289 51.2739 18.7822C51.5821 18.6028 51.8555 18.386 52.2406 18.5898C53.4346 19.12 54.5997 19.7137 55.7309 20.3683C60.4501 23.6045 65.5625 26.1603 70.4184 29.1555C70.662 29.3485 70.9577 29.4636 71.2672 29.4858C71.5767 29.508 71.8857 29.4363 72.1541 29.28C74.15 28.0818 76.1367 26.8714 78.1568 25.7176C78.9856 25.2443 79.1255 24.9211 78.2011 24.4019C76.292 23.3263 74.4105 22.1983 72.515 21.0949C65.9125 17.2537 59.3123 13.4094 52.7145 9.56195C52.4759 9.41019 52.1975 9.33372 51.9152 9.3424C51.6329 9.35108 51.3596 9.44451 51.1307 9.61064C49.5391 10.54 47.9481 11.4709 46.3577 12.4034C41.2016 15.4067 36.0446 18.4095 30.8868 21.4119C24.1627 25.3106 17.4448 29.2223 10.6863 33.0589C10.2237 33.2887 9.84388 33.6576 9.5997 34.1141C9.35551 34.5707 9.25909 35.0924 9.32385 35.6065C9.36191 43.245 9.34387 50.883 9.34387 58.5241C9.34387 66.207 9.36896 73.8894 9.31794 81.5724C9.26945 82.0917 9.3822 82.6134 9.64073 83.0658C9.89925 83.5182 10.2909 83.8793 10.7619 84.0993C15.311 86.6681 19.8247 89.2989 24.3499 91.9139C28.0354 94.0448 31.7197 96.1789 35.4027 98.316C36.5665 98.988 36.8571 98.8224 36.8667 97.4855C36.8813 95.5431 36.7965 93.5964 36.8971 91.6586C36.96 91.1162 36.849 90.5679 36.5804 90.0932C36.3117 89.6185 35.8992 89.2422 35.403 89.019C29.9182 85.8733 24.4858 82.6353 18.9809 79.527C18.4493 79.2922 18.0061 78.8932 17.7158 78.3881C17.4255 77.883 17.3032 77.2981 17.3667 76.7184C17.4891 71.8647 17.4961 67.005 17.4536 62.1547C17.3972 54.8742 17.4944 47.5938 17.4031 40.315C17.3859 38.8858 17.5906 38.804 18.7864 39.4995C24.3268 42.7236 29.8827 45.9226 35.3985 49.1886C35.5268 49.2592 35.6599 49.3206 35.7968 49.3723L44.5239 54.4151C44.6888 54.6529 45.022 54.7488 45.2797 54.8963C50.0789 57.6525 54.8858 60.3974 59.6763 63.1692C68.0772 68.0298 76.4732 72.8979 84.8643 77.7737C86.2346 78.5662 86.2642 78.7361 84.9286 79.5165C80.5268 82.0757 76.1079 84.6046 71.7115 87.1734C65.7765 90.6407 59.862 94.1445 53.9208 97.6004C53.4088 97.8985 52.8047 98.5345 52.297 98.2905C51.6235 97.9673 51.9717 97.0915 51.9697 96.4605C51.9415 87.3175 51.8986 78.1745 51.9638 69.0334C52.0258 68.4295 51.891 67.8216 51.5798 67.301C51.2686 66.7804 50.7977 66.3752 50.2376 66.1462C48.6364 65.3307 47.0898 64.4033 45.5298 63.5103C44.2279 62.7635 44.136 62.8046 44.1343 64.3634C44.129 70.6375 44.129 76.9092 44.1343 83.1785C44.1343 89.3655 44.1625 95.5453 44.1101 101.728C44.0638 102.252 44.181 102.777 44.4453 103.231C44.7096 103.685 45.108 104.046 45.5853 104.263C47.321 105.202 49.0528 106.167 50.7107 107.235C51.0739 107.507 51.5145 107.655 51.9676 107.656C52.4206 107.658 52.8622 107.513 53.2273 107.244C56.131 105.51 59.0628 103.827 61.9854 102.129C68.1759 98.5316 74.3664 94.9367 80.557 91.3438C84.7763 88.9038 88.9976 86.457 93.2429 84.0608C93.7223 83.8504 94.1211 83.49 94.3797 83.0332C94.6383 82.5765 94.7427 82.0481 94.6775 81.5268C94.5621 79.9401 94.5621 78.347 94.6775 76.7603C94.8233 74.9107 94.1994 73.8937 92.4967 72.9352Z" fill="#009289"/>
</g>
<path d="M92.4967 72.9352C83.0728 67.6057 73.7272 62.1385 64.365 56.7003L60.6576 54.5428C60.5847 54.4979 60.5228 54.4372 60.4764 54.3652C60.43 54.2931 60.4003 54.2115 60.3895 54.1264C60.3573 53.6619 60.8442 53.5512 61.1788 53.3578C69.1663 48.7458 77.1543 44.1332 85.1431 39.5202C85.5423 39.2901 85.9293 38.7585 86.4196 39.0653C86.8221 39.3172 86.6141 39.8836 86.6149 40.308C86.6254 46.7562 86.6431 53.2047 86.6003 59.6529C86.5541 60.0858 86.6445 60.5222 86.8588 60.9007C87.0731 61.2791 87.4004 61.5803 87.7945 61.7618C89.5705 62.7202 91.3006 63.7659 93.0569 64.7623C94.3855 65.5152 94.6355 65.3802 94.6355 63.8324C94.6442 54.2923 94.6488 44.7524 94.6494 35.2125C94.6884 34.8183 94.6084 34.4215 94.4199 34.0735C94.2314 33.7255 93.943 33.4426 93.5922 33.2613C91.5258 32.1008 89.4848 30.8946 87.4446 29.6885C87.2001 29.5401 86.9173 29.4679 86.6319 29.4811C86.3465 29.4943 86.0715 29.5923 85.8417 29.7626C81.1757 32.4825 76.5061 35.1957 71.833 37.9022L51.915 49.4564L43.9996 44.8492C43.7826 44.6803 43.5442 44.5414 43.2905 44.4362L39.7365 42.3692C37.98 41.3457 36.2228 40.3227 34.4648 39.3002L33.4155 38.6902V38.6945C31.0503 37.3218 28.6814 35.9546 26.3089 34.5929C25.278 34.0038 25.473 33.772 26.334 33.2752C34.6565 28.4599 42.9698 23.6289 51.2739 18.7822C51.5821 18.6028 51.8555 18.386 52.2406 18.5898C53.4346 19.12 54.5997 19.7137 55.7309 20.3683C60.4501 23.6045 65.5625 26.1603 70.4184 29.1555C70.662 29.3485 70.9577 29.4636 71.2672 29.4858C71.5767 29.508 71.8857 29.4363 72.1541 29.28C74.15 28.0818 76.1367 26.8714 78.1568 25.7176C78.9856 25.2443 79.1255 24.9211 78.2011 24.4019C76.292 23.3263 74.4105 22.1983 72.515 21.0949C65.9125 17.2537 59.3123 13.4094 52.7145 9.56195C52.4759 9.41019 52.1975 9.33372 51.9152 9.3424C51.6329 9.35108 51.3596 9.44451 51.1307 9.61064C49.5391 10.54 47.9481 11.4709 46.3577 12.4034C41.2016 15.4067 36.0446 18.4095 30.8868 21.4119C24.1627 25.3106 17.4448 29.2223 10.6863 33.0589C10.2237 33.2887 9.84388 33.6576 9.5997 34.1141C9.35551 34.5707 9.25909 35.0924 9.32385 35.6065C9.36191 43.245 9.34387 50.883 9.34387 58.5241C9.34387 66.207 9.36896 73.8894 9.31794 81.5724C9.26945 82.0917 9.3822 82.6134 9.64073 83.0658C9.89925 83.5182 10.2909 83.8793 10.7619 84.0993C15.311 86.6681 19.8247 89.2989 24.3499 91.9139C28.0354 94.0448 31.7197 96.1789 35.4027 98.316C36.5665 98.988 36.8571 98.8224 36.8667 97.4855C36.8813 95.5431 36.7965 93.5964 36.8971 91.6586C36.96 91.1162 36.849 90.5679 36.5804 90.0932C36.3117 89.6185 35.8992 89.2422 35.403 89.019C29.9182 85.8733 24.4858 82.6353 18.9809 79.527C18.4493 79.2922 18.0061 78.8932 17.7158 78.3881C17.4255 77.883 17.3032 77.2981 17.3667 76.7184C17.4891 71.8647 17.4961 67.005 17.4536 62.1547C17.3972 54.8742 17.4944 47.5938 17.4031 40.315C17.3859 38.8858 17.5906 38.804 18.7864 39.4995C24.3268 42.7236 29.8827 45.9226 35.3985 49.1886C35.5268 49.2592 35.6599 49.3206 35.7968 49.3723L44.5239 54.4151C44.6888 54.6529 45.022 54.7488 45.2797 54.8963C50.0789 57.6525 54.8858 60.3974 59.6763 63.1692C68.0772 68.0298 76.4732 72.8979 84.8643 77.7737C86.2346 78.5662 86.2642 78.7361 84.9286 79.5165C80.5268 82.0757 76.1079 84.6046 71.7115 87.1734C65.7765 90.6407 59.862 94.1445 53.9208 97.6004C53.4088 97.8985 52.8047 98.5345 52.297 98.2905C51.6235 97.9673 51.9717 97.0915 51.9697 96.4605C51.9415 87.3175 51.8986 78.1745 51.9638 69.0334C52.0258 68.4295 51.891 67.8216 51.5798 67.301C51.2686 66.7804 50.7977 66.3752 50.2376 66.1462C48.6364 65.3307 47.0898 64.4033 45.5298 63.5103C44.2279 62.7635 44.136 62.8046 44.1343 64.3634C44.129 70.6375 44.129 76.9092 44.1343 83.1785C44.1343 89.3655 44.1625 95.5453 44.1101 101.728C44.0638 102.252 44.181 102.777 44.4453 103.231C44.7096 103.685 45.108 104.046 45.5853 104.263C47.321 105.202 49.0528 106.167 50.7107 107.235C51.0739 107.507 51.5145 107.655 51.9676 107.656C52.4206 107.658 52.8622 107.513 53.2273 107.244C56.131 105.51 59.0628 103.827 61.9854 102.129C68.1759 98.5316 74.3664 94.9367 80.557 91.3438C84.7763 88.9038 88.9976 86.457 93.2429 84.0608C93.7223 83.8504 94.1211 83.49 94.3797 83.0332C94.6383 82.5765 94.7427 82.0481 94.6775 81.5268C94.5621 79.9401 94.5621 78.347 94.6775 76.7603C94.8233 74.9107 94.1994 73.8937 92.4967 72.9352Z" fill="white"/>
</g>
<path d="M121.276 49V22.8182H138.918V27.3821H126.811V33.6207H138.01V38.1847H126.811V44.4361H138.969V49H121.276ZM148.509 22.8182L153.789 31.7415H153.993L159.299 22.8182H165.55L157.56 35.9091L165.729 49H159.363L153.993 40.0639H153.789L148.419 49H142.078L150.273 35.9091L142.232 22.8182H148.509ZM169.053 49V22.8182H179.382C181.368 22.8182 183.06 23.1974 184.458 23.956C185.855 24.706 186.921 25.75 187.654 27.0881C188.395 28.4176 188.766 29.9517 188.766 31.6903C188.766 33.429 188.391 34.9631 187.641 36.2926C186.891 37.6222 185.804 38.6577 184.381 39.3991C182.966 40.1406 181.253 40.5114 179.242 40.5114H172.658V36.0753H178.347C179.412 36.0753 180.29 35.892 180.98 35.5256C181.679 35.1506 182.199 34.6349 182.54 33.9787C182.89 33.3139 183.064 32.5511 183.064 31.6903C183.064 30.821 182.89 30.0625 182.54 29.4148C182.199 28.7585 181.679 28.2514 180.98 27.8935C180.282 27.527 179.395 27.3438 178.321 27.3438H174.588V49H169.053ZM193.851 49H187.919L196.957 22.8182H204.091L213.116 49H207.185L200.626 28.8011H200.422L193.851 49ZM193.48 38.7088H207.491V43.0298H193.48V38.7088ZM238.167 22.8182V49H233.386L221.995 32.5213H221.803V49H216.268V22.8182H221.126L232.427 39.2841H232.657V22.8182H238.167ZM252.022 49H242.74V22.8182H252.098C254.732 22.8182 256.999 23.3423 258.9 24.3906C260.8 25.4304 262.262 26.9261 263.284 28.8778C264.316 30.8295 264.831 33.1648 264.831 35.8835C264.831 38.6108 264.316 40.9545 263.284 42.9148C262.262 44.875 260.792 46.3793 258.874 47.4276C256.965 48.4759 254.681 49 252.022 49ZM248.276 44.2571H251.792C253.428 44.2571 254.804 43.9673 255.921 43.3878C257.046 42.7997 257.89 41.892 258.452 40.6648C259.023 39.429 259.309 37.8352 259.309 35.8835C259.309 33.9489 259.023 32.3679 258.452 31.1406C257.89 29.9134 257.05 29.0099 255.934 28.4304C254.817 27.8509 253.441 27.5611 251.804 27.5611H248.276V44.2571ZM274.467 22.8182V49H268.932V22.8182H274.467ZM300.921 22.8182V49H296.14L284.749 32.5213H284.557V49H279.022V22.8182H283.88L295.181 39.2841H295.411V22.8182H300.921ZM322.855 31.2812C322.676 30.6591 322.425 30.1094 322.101 29.6321C321.777 29.1463 321.381 28.7372 320.912 28.4048C320.452 28.0639 319.923 27.804 319.327 27.625C318.739 27.446 318.087 27.3565 317.371 27.3565C316.033 27.3565 314.857 27.6889 313.842 28.3537C312.837 29.0185 312.053 29.9858 311.49 31.2557C310.928 32.517 310.646 34.0597 310.646 35.8835C310.646 37.7074 310.923 39.2585 311.477 40.5369C312.031 41.8153 312.815 42.7912 313.83 43.4645C314.844 44.1293 316.041 44.4616 317.422 44.4616C318.675 44.4616 319.744 44.2401 320.631 43.7969C321.526 43.3452 322.207 42.7102 322.676 41.892C323.153 41.0739 323.392 40.1065 323.392 38.9901L324.517 39.1562H317.767V34.9886H328.723V38.2869C328.723 40.5881 328.237 42.5653 327.266 44.2188C326.294 45.8636 324.956 47.1335 323.251 48.0284C321.547 48.9148 319.595 49.358 317.396 49.358C314.942 49.358 312.786 48.8168 310.928 47.7344C309.07 46.6435 307.621 45.0966 306.581 43.0938C305.55 41.0824 305.034 38.696 305.034 35.9347C305.034 33.8125 305.341 31.9205 305.955 30.2585C306.577 28.5881 307.446 27.1733 308.562 26.0142C309.679 24.8551 310.979 23.973 312.462 23.3679C313.945 22.7628 315.551 22.4602 317.281 22.4602C318.764 22.4602 320.145 22.6776 321.423 23.1122C322.702 23.5384 323.835 24.1435 324.824 24.9276C325.821 25.7116 326.635 26.6449 327.266 27.7273C327.896 28.8011 328.301 29.9858 328.48 31.2812H322.855ZM135.479 74.348C135.376 73.3168 134.938 72.5156 134.162 71.9446C133.386 71.3736 132.334 71.0881 131.004 71.0881C130.101 71.0881 129.338 71.2159 128.716 71.4716C128.094 71.7188 127.616 72.0639 127.284 72.5071C126.96 72.9503 126.798 73.4531 126.798 74.0156C126.781 74.4844 126.879 74.8935 127.092 75.2429C127.314 75.5923 127.616 75.8949 128 76.1506C128.384 76.3977 128.827 76.6151 129.33 76.8026C129.832 76.9815 130.369 77.1349 130.94 77.2628L133.293 77.8253C134.435 78.081 135.483 78.4219 136.438 78.848C137.392 79.2741 138.219 79.7983 138.918 80.4205C139.616 81.0426 140.158 81.7756 140.541 82.6193C140.933 83.4631 141.134 84.4304 141.142 85.5213C141.134 87.1236 140.724 88.5128 139.915 89.6889C139.114 90.8565 137.955 91.7642 136.438 92.4119C134.929 93.0511 133.109 93.3707 130.979 93.3707C128.865 93.3707 127.024 93.0469 125.456 92.3991C123.896 91.7514 122.678 90.7926 121.8 89.5227C120.93 88.2443 120.474 86.6634 120.432 84.7798H125.788C125.848 85.6577 126.099 86.3906 126.543 86.9787C126.994 87.5582 127.595 87.9972 128.345 88.2955C129.104 88.5852 129.96 88.7301 130.915 88.7301C131.852 88.7301 132.666 88.5937 133.357 88.321C134.055 88.0483 134.597 87.669 134.98 87.1832C135.364 86.6974 135.555 86.1392 135.555 85.5085C135.555 84.9205 135.381 84.4261 135.031 84.0256C134.69 83.625 134.188 83.2841 133.523 83.0028C132.866 82.7216 132.061 82.4659 131.107 82.2358L128.256 81.5199C126.048 80.983 124.305 80.1435 123.027 79.0014C121.749 77.8594 121.114 76.321 121.122 74.3864C121.114 72.8011 121.536 71.4162 122.388 70.2315C123.249 69.0469 124.429 68.1222 125.929 67.4574C127.429 66.7926 129.134 66.4602 131.043 66.4602C132.986 66.4602 134.682 66.7926 136.131 67.4574C137.588 68.1222 138.722 69.0469 139.531 70.2315C140.341 71.4162 140.759 72.7884 140.784 74.348H135.479ZM144.865 93V66.8182H155.195C157.181 66.8182 158.873 67.1974 160.27 67.956C161.668 68.706 162.733 69.75 163.466 71.0881C164.208 72.4176 164.578 73.9517 164.578 75.6903C164.578 77.429 164.203 78.9631 163.453 80.2926C162.703 81.6222 161.617 82.6577 160.194 83.3991C158.779 84.1406 157.066 84.5114 155.054 84.5114H148.471V80.0753H154.159C155.225 80.0753 156.103 79.892 156.793 79.5256C157.492 79.1506 158.012 78.6349 158.353 77.9787C158.702 77.3139 158.877 76.5511 158.877 75.6903C158.877 74.821 158.702 74.0625 158.353 73.4148C158.012 72.7585 157.492 72.2514 156.793 71.8935C156.094 71.527 155.208 71.3438 154.134 71.3438H150.401V93H144.865ZM169.663 93H163.732L172.77 66.8182H179.903L188.929 93H182.997L176.439 72.8011H176.234L169.663 93ZM169.293 82.7088H183.304V87.0298H169.293V82.7088ZM213.951 75.9844H208.351C208.249 75.2599 208.04 74.6165 207.725 74.054C207.409 73.483 207.005 72.9972 206.51 72.5966C206.016 72.196 205.445 71.8892 204.797 71.6761C204.158 71.4631 203.463 71.3565 202.713 71.3565C201.358 71.3565 200.178 71.6932 199.172 72.3665C198.167 73.0312 197.387 74.0028 196.833 75.2812C196.279 76.5511 196.002 78.0937 196.002 79.9091C196.002 81.7756 196.279 83.3437 196.833 84.6136C197.395 85.8835 198.179 86.8423 199.185 87.4901C200.191 88.1378 201.354 88.4616 202.675 88.4616C203.417 88.4616 204.103 88.3636 204.733 88.1676C205.373 87.9716 205.939 87.6861 206.434 87.3111C206.928 86.9276 207.337 86.4631 207.661 85.9176C207.993 85.3722 208.223 84.75 208.351 84.0511L213.951 84.0767C213.806 85.2784 213.444 86.4375 212.864 87.554C212.293 88.6619 211.522 89.6548 210.55 90.5327C209.587 91.402 208.436 92.0923 207.098 92.6037C205.769 93.1065 204.265 93.358 202.586 93.358C200.25 93.358 198.162 92.8295 196.321 91.7727C194.489 90.7159 193.04 89.1861 191.975 87.1832C190.918 85.1804 190.39 82.7557 190.39 79.9091C190.39 77.054 190.926 74.625 192 72.6222C193.074 70.6193 194.532 69.0937 196.373 68.0455C198.213 66.9886 200.284 66.4602 202.586 66.4602C204.103 66.4602 205.509 66.6733 206.804 67.0994C208.108 67.5256 209.263 68.1477 210.269 68.9659C211.275 69.7756 212.093 70.7685 212.723 71.9446C213.363 73.1207 213.772 74.4673 213.951 75.9844ZM217.92 93V66.8182H235.562V71.3821H223.456V77.6207H234.654V82.1847H223.456V88.4361H235.613V93H217.92Z" fill="white"/>
<defs>
<filter id="filter0_f_10_62" x="-0.69577" y="-0.658264" width="105.394" height="118.314" filterUnits="userSpaceOnUse" color-interpolation-filters="sRGB">
<feFlood flood-opacity="0" result="BackgroundImageFix"/>
<feBlend mode="normal" in="SourceGraphic" in2="BackgroundImageFix" result="shape"/>
<feGaussianBlur stdDeviation="5" result="effect1_foregroundBlur_10_62"/>
</filter>
<clipPath id="clip0_10_62">
<rect width="104" height="117" fill="white"/>
</clipPath>
</defs>
</svg>
