<svg width="117" height="112" viewBox="0 0 117 112" fill="none" xmlns="http://www.w3.org/2000/svg">
<path fill-rule="evenodd" clip-rule="evenodd" d="M51.1445 18.0961C60.2118 19.4962 67.9556 8.0185 76.9282 9.92989C85.9325 11.8481 91.0505 21.0859 97.1979 27.9067C104.699 36.2297 117.697 43.2035 116.971 54.3588C116.23 65.7358 99.6123 69.0333 93.8778 78.904C88.1475 88.7677 94.562 106.546 84.0401 111.043C72.9071 115.8 62.4492 101.504 51.1445 97.1658C44.1864 94.4956 37.4284 92.3421 30.2325 90.3931C20.239 87.6865 3.69615 93.2494 0.498526 83.4488C-3.09509 72.4346 13.7579 64.945 18.4756 54.3588C20.8844 48.9536 20.9411 43.0354 21.1422 37.1261C21.5568 24.9412 9.95155 7.73795 20.285 1.18361C30.3592 -5.20634 39.3382 16.2731 51.1445 18.0961Z" fill="white"/>
</svg>
