<svg width="117" height="115" viewBox="0 0 117 115" fill="none" xmlns="http://www.w3.org/2000/svg">
<path fill-rule="evenodd" clip-rule="evenodd" d="M44.3072 33.2406C53.623 28.0579 48.7602 10.7208 57.3092 4.35423C63.673 -0.384987 76.8322 -0.797546 80.8453 6.03004C87.0216 16.5378 71.9856 32.7505 79.597 42.2724C85.7286 49.9431 106.443 31.515 108.83 41.0392C111.532 51.8218 83.3979 53.1263 85.0712 64.1164C86.874 75.9568 109.383 72.6634 115.236 83.1121C118.995 89.8226 114.366 100.668 107.851 104.786C100.196 109.624 89.9739 104.695 80.9204 104.803C75.4015 104.868 69.8425 103.867 64.5108 105.299C58.6781 106.865 54.4594 112.363 48.5282 113.499C42.1219 114.726 35.518 113.612 29.1861 112.063C21.8508 110.268 11.1708 110.666 8.35822 103.669C5.08164 95.5173 14.0705 87.2095 15.7256 78.5764C16.7147 73.4172 18.0616 67.8561 16.1625 62.9616C12.5906 53.7561 -0.758979 48.1959 0.119679 38.3568C0.816556 30.5534 11.7242 26.2807 19.5188 25.3782C28.2096 24.372 36.6611 37.4944 44.3072 33.2406Z" fill="white"/>
</svg>
