<svg width="88" height="91" viewBox="0 0 88 91" fill="none" xmlns="http://www.w3.org/2000/svg">
<path fill-rule="evenodd" clip-rule="evenodd" d="M27.7036 12.6426C35.4575 7.55283 43.8925 -2.0823 52.4934 1.25725C61.579 4.78498 59.0654 19.0425 64.615 26.9744C68.815 32.9774 77.1297 35.0133 80.6158 41.4521C84.778 49.1396 90.7552 59.1113 86.05 66.5644C81.0628 74.4641 67.808 69.9868 59.6596 74.647C52.9267 78.4976 51.3752 90.1316 43.653 90.8118C35.9723 91.4884 32.3737 80.9085 25.4307 77.6623C17.7438 74.0682 4.54054 78.8168 1.33058 71.0236C-2.03236 62.859 10.9484 56.2788 13.0775 47.671C14.7058 41.0878 9.39656 34.0984 12.0149 27.8278C14.8624 21.0081 21.4837 16.7254 27.7036 12.6426Z" fill="#505050"/>
</svg>
