<svg width="113" height="105" viewBox="0 0 113 105" fill="none" xmlns="http://www.w3.org/2000/svg">
<path fill-rule="evenodd" clip-rule="evenodd" d="M64.5632 0.041217C74.0636 0.86482 78.3714 12.1688 85.3396 18.6814C94.8988 27.6157 113.933 32.1746 112.925 45.2411C111.897 58.5624 89.8435 58.0403 81.4971 68.472C73.4733 78.5005 78.2705 97.5002 66.6893 103.028C55.4593 108.389 43.514 96.7605 31.9879 92.1044C21.0909 87.7025 4.06664 88.0418 1.28171 76.6065C-1.83471 63.81 18.4811 55.9774 20.0019 42.8881C21.2779 31.9053 2.17549 21.4971 8.72002 12.5864C15.2008 3.7624 29.9596 17.2018 40.6274 14.8053C49.9969 12.7004 55.0005 -0.787795 64.5632 0.041217Z" fill="white"/>
</svg>
